<svg width="22" height="22" viewBox="0 0 22 22" fill="none" xmlns="http://www.w3.org/2000/svg">
<g clip-path="url(#clip0_2_705)">
<path d="M21.4859 11.2058C21.4859 10.3045 21.4128 9.64674 21.2545 8.96466H10.9622V13.0328H17.0036C16.8818 14.0438 16.2241 15.5663 14.7624 16.5894L14.7419 16.7256L17.9962 19.2466L18.2216 19.2691C20.2922 17.3568 21.4859 14.5432 21.4859 11.2058Z" fill="#4285F4"/>
<path d="M10.9622 21.9244C13.922 21.9244 16.4067 20.95 18.2216 19.2692L14.7624 16.5894C13.8367 17.235 12.5943 17.6857 10.9622 17.6857C8.06334 17.6857 5.60295 15.7734 4.72589 13.1303L4.59733 13.1412L1.21353 15.76L1.16928 15.883C2.97194 19.464 6.67474 21.9244 10.9622 21.9244Z" fill="#34A853"/>
<path d="M4.72589 13.1303C4.49447 12.4482 4.36053 11.7174 4.36053 10.9622C4.36053 10.207 4.49447 9.47621 4.71371 8.79413L4.70758 8.64886L1.28137 5.98804L1.16927 6.04136C0.426313 7.52737 0 9.19609 0 10.9622C0 12.7283 0.426313 14.397 1.16927 15.883L4.72589 13.1303Z" fill="#FBBC05"/>
<path d="M10.9622 4.23869C13.0206 4.23869 14.4092 5.12785 15.2009 5.87089L18.2947 2.85018C16.3946 1.08405 13.922 0 10.9622 0C6.67474 0 2.97194 2.46039 1.16928 6.04135L4.71372 8.79412C5.60295 6.15102 8.06334 4.23869 10.9622 4.23869Z" fill="#EB4335"/>
</g>
<defs>
<clipPath id="clip0_2_705">
<rect width="22" height="22" fill="white"/>
</clipPath>
</defs>
</svg>
